<?xml version="1.0" encoding="UTF-8"?>
<svg xmlns="http://www.w3.org/2000/svg" xmlns:xlink="http://www.w3.org/1999/xlink" width="14pt" height="16pt" viewBox="0 0 14 16" version="1.1">
<g id="surface1">
<path style=" stroke:none;fill-rule:nonzero;fill:rgb(0%,0%,0%);fill-opacity:1;" d="M 3.753906 6.507812 C 3.632812 6.417969 3.511719 6.375 3.390625 6.375 L 2.84375 6.375 L 2.84375 9.636719 L 3.390625 9.636719 C 3.511719 9.636719 3.632812 9.59375 3.753906 9.5 C 3.875 9.410156 3.9375 9.273438 3.9375 9.09375 L 3.9375 6.917969 C 3.9375 6.734375 3.875 6.601562 3.753906 6.507812 Z M 12.628906 1 L 1.371094 1 C 0.617188 1 0 1.613281 0 2.367188 L 0 13.632812 C 0 14.386719 0.617188 15 1.371094 15 L 12.628906 15 C 13.382812 15 14 14.386719 14 13.632812 L 14 2.367188 C 14 1.613281 13.382812 1 12.628906 1 Z M 4.820312 9.101562 C 4.820312 9.6875 4.457031 10.578125 3.308594 10.578125 L 1.859375 10.578125 L 1.859375 5.40625 L 3.339844 5.40625 C 4.445312 5.40625 4.816406 6.296875 4.820312 6.882812 Z M 7.964844 6.328125 L 6.300781 6.328125 L 6.300781 7.53125 L 7.316406 7.53125 L 7.316406 8.453125 L 6.300781 8.453125 L 6.300781 9.652344 L 7.964844 9.652344 L 7.964844 10.578125 L 6.023438 10.578125 C 5.671875 10.585938 5.382812 10.3125 5.375 9.960938 L 5.375 6.054688 C 5.367188 5.703125 5.640625 5.414062 5.992188 5.40625 L 7.964844 5.40625 Z M 11.203125 9.933594 C 10.792969 10.894531 10.050781 10.703125 9.722656 9.933594 L 8.515625 5.40625 L 9.535156 5.40625 L 10.464844 8.960938 L 11.386719 5.40625 L 12.40625 5.40625 Z M 11.203125 9.933594 "/>
</g>
</svg>
