<?xml version="1.0" encoding="UTF-8"?>
<svg xmlns="http://www.w3.org/2000/svg" xmlns:xlink="http://www.w3.org/1999/xlink" width="16pt" height="16pt" viewBox="0 0 16 16" version="1.1">
<g id="surface1">
<path style=" stroke:none;fill-rule:nonzero;fill:rgb(41.568627%,85.490196%,67.058824%);fill-opacity:1;" d="M 8 15.5 C 3.863281 15.5 0.5 12.136719 0.5 8 C 0.5 3.863281 3.863281 0.5 8 0.5 C 12.136719 0.5 15.5 3.863281 15.5 8 C 15.5 12.136719 12.136719 15.5 8 15.5 Z M 8 1.25 C 4.273438 1.25 1.25 4.273438 1.25 8 C 1.25 11.726562 4.273438 14.75 8 14.75 C 11.726562 14.75 14.75 11.726562 14.75 8 C 14.75 4.273438 11.726562 1.25 8 1.25 Z M 8 1.25 "/>
<path style=" stroke:none;fill-rule:nonzero;fill:rgb(41.568627%,85.490196%,67.058824%);fill-opacity:1;" d="M 7.050781 9.539062 C 7.050781 9.3125 6.976562 9.125 6.835938 8.976562 C 6.699219 8.824219 6.460938 8.6875 6.136719 8.574219 C 5.8125 8.449219 5.550781 8.335938 5.375 8.238281 C 4.773438 7.898438 4.460938 7.398438 4.460938 6.75 C 4.460938 6.300781 4.585938 5.9375 4.851562 5.648438 C 5.113281 5.363281 5.386719 5.199219 5.835938 5.148438 L 5.835938 4.25 L 6.539062 4.25 L 6.539062 5.136719 C 6.988281 5.199219 7.335938 5.398438 7.585938 5.738281 C 7.835938 6.0625 7.960938 6.488281 7.960938 7.011719 L 7.023438 7.011719 C 7.023438 6.675781 6.949219 6.414062 6.800781 6.210938 C 6.648438 6.011719 6.449219 5.914062 6.199219 5.914062 C 5.949219 5.914062 5.75 5.988281 5.613281 6.125 C 5.476562 6.261719 5.398438 6.460938 5.398438 6.726562 C 5.398438 6.960938 5.476562 7.148438 5.613281 7.289062 C 5.75 7.425781 5.988281 7.5625 6.324219 7.6875 C 6.664062 7.8125 6.925781 7.925781 7.113281 8.039062 C 7.300781 8.148438 7.460938 8.261719 7.585938 8.414062 C 7.710938 8.550781 7.8125 8.710938 7.886719 8.886719 C 7.960938 9.0625 7.988281 9.273438 7.988281 9.523438 C 7.988281 9.976562 7.851562 10.351562 7.585938 10.625 C 7.324219 10.914062 7 11.074219 6.511719 11.125 L 6.511719 11.75 L 5.835938 11.75 L 5.835938 11.125 C 5.324219 11.0625 4.925781 10.875 4.648438 10.550781 C 4.375 10.226562 4.238281 9.800781 4.238281 9.273438 L 5.1875 9.273438 C 5.1875 9.613281 5.273438 9.875 5.4375 10.0625 C 5.601562 10.25 5.835938 10.335938 6.136719 10.335938 C 6.4375 10.335938 6.664062 10.261719 6.8125 10.113281 C 6.976562 9.976562 7.050781 9.773438 7.050781 9.539062 Z M 7.050781 9.539062 "/>
<path style=" stroke:none;fill-rule:nonzero;fill:rgb(41.568627%,85.490196%,67.058824%);fill-opacity:1;" d="M 11.75 6.125 L 12.375 6.125 L 12.375 10.5 L 11.75 10.5 Z M 11.75 6.125 "/>
<path style=" stroke:none;fill-rule:nonzero;fill:rgb(41.568627%,85.490196%,67.058824%);fill-opacity:1;" d="M 10.5 6.75 L 11.125 6.75 L 11.125 9.875 L 10.5 9.875 Z M 10.5 6.75 "/>
<path style=" stroke:none;fill-rule:nonzero;fill:rgb(41.568627%,85.490196%,67.058824%);fill-opacity:1;" d="M 9.25 7.375 L 9.875 7.375 L 9.875 9.25 L 9.25 9.25 Z M 9.25 7.375 "/>
</g>
</svg>
