<?xml version="1.0" encoding="UTF-8" standalone="no"?><!-- Generator: Gravit.io --><svg xmlns="http://www.w3.org/2000/svg" xmlns:xlink="http://www.w3.org/1999/xlink" style="isolation:isolate" viewBox="0 0 500 500" width="500pt" height="500pt"><defs><clipPath id="_clipPath_zbZ7NCxfEoEyMvS14lnHO7Sp4bJAoYvC"><rect width="500" height="500"/></clipPath></defs><g clip-path="url(#_clipPath_zbZ7NCxfEoEyMvS14lnHO7Sp4bJAoYvC)"><g><g><g><path d=" M 377.538 357.042 L 377.538 384.298 L 46.645 384.298 L 46.645 199.644 L 90.504 199.658 L 90.518 169.772 L 16.772 169.744 L 16.772 169.786 L 16.758 169.786 L 16.758 412.398 L 16.772 412.398 L 16.772 414.185 L 377.538 414.185 L 377.538 414.199 L 407.425 414.199 L 407.425 357.042 L 377.538 357.042 Z " fill="rgb(255,122,127)"/><path d=" M 46.645 384.298 L 129.537 384.298 L 129.537 414.41 L 46.645 414.41 L 46.645 384.298 Z " fill="rgb(255,200,220)"/><path d=" M 46.652 331.513 L 46.652 414.406 L 16.54 414.406 L 16.54 331.513 L 46.652 331.513 Z " fill="rgb(163,190,220)"/><path d=" M 46.66 248.616 L 46.66 331.508 L 16.548 331.508 L 16.548 248.616 L 46.66 248.616 Z " fill="rgb(86,183,181)"/><path d=" M 129.157 384.298 L 212.049 384.298 L 212.049 414.41 L 129.157 414.41 L 129.157 384.298 Z " fill="rgb(255,152,82)"/><path d=" M 212.274 384.298 L 295.167 384.298 L 295.167 414.41 L 212.274 414.41 L 212.274 384.298 Z " fill="rgb(152,225,208)"/><path d=" M 295.167 384.298 L 378.059 384.298 L 378.059 414.41 L 295.167 414.41 L 295.167 384.298 Z " fill="rgb(128,117,179)"/><path d=" M 407.43 342.98 L 407.43 414.39 L 377.319 414.39 L 377.319 342.98 L 407.43 342.98 Z " fill="rgb(128,117,179)"/><path d=" M 474.163 349.998 L 83.497 349.998 L 83.497 105.557 L 474.163 105.557 L 474.163 349.998 Z " fill="rgb(152,225,208)"/><path d=" M 137.586 246.656 L 163.842 246.656 C 167.064 246.656 169.667 244.052 169.667 240.83 L 169.667 214.588 C 169.667 211.366 167.064 208.762 163.842 208.762 L 137.586 208.762 C 134.363 208.762 131.76 211.366 131.76 214.588 L 131.76 240.844 C 131.76 244.052 134.363 246.656 137.586 246.656 L 137.586 246.656 Z " fill="rgb(255,255,255)"/><path d=" M 217.987 228.588 C 217.987 195.008 245.25 167.746 278.83 167.746 C 312.41 167.746 339.673 195.008 339.673 228.588 C 339.673 262.169 312.41 289.431 278.83 289.431 C 245.25 289.431 217.987 262.169 217.987 228.588 Z " fill="rgb(255,255,255)"/><path d=" M 393.776 246.656 L 420.032 246.656 C 423.255 246.656 425.858 244.052 425.858 240.83 L 425.858 214.588 C 425.858 211.366 423.255 208.762 420.032 208.762 L 393.776 208.762 C 390.554 208.762 387.951 211.366 387.951 214.588 L 387.951 240.844 C 387.951 244.052 390.554 246.656 393.776 246.656 L 393.776 246.656 Z " fill="rgb(255,255,255)"/></g><path d=" M 484.057 219.088 L 445.442 132.922 L 432.23 138.843 L 464.421 210.619 L 254.556 120.109 L 328.87 94.216 L 324.108 80.543 L 234.92 111.641 L 234.878 111.622 L 218.216 150.256 C 210.684 167.72 221.373 189.203 242.032 198.112 L 281.432 215.105 C 302.091 224.014 325.051 217.044 332.583 199.58 L 343.532 174.193 L 363.977 183.011 L 353.028 208.397 C 345.497 225.861 356.186 247.344 376.844 256.254 L 416.245 273.246 C 436.903 282.155 459.864 275.185 467.395 257.721 L 484.057 219.088 Z " fill="rgb(252,96,168)"/></g></g></g></svg>