<?xml version="1.0" encoding="UTF-8" standalone="no"?><!-- Generator: Gravit.io --><svg xmlns="http://www.w3.org/2000/svg" xmlns:xlink="http://www.w3.org/1999/xlink" style="isolation:isolate" viewBox="0 0 128 128" width="128pt" height="128pt"><defs><clipPath id="_clipPath_gKI0fVNfvIwfqlnRNcPjRk8mLJc1J85q"><rect width="128" height="128"/></clipPath></defs><g clip-path="url(#_clipPath_gKI0fVNfvIwfqlnRNcPjRk8mLJc1J85q)"><path d=" M 64 124 C 30.9 124 4 97.1 4 64 C 4 30.9 30.9 4 64 4 C 97.1 4 124 30.9 124 64 C 124 97.1 97.1 124 64 124 Z  M 64 10 C 34.2 10 10 34.2 10 64 C 10 93.8 34.2 118 64 118 C 93.8 118 118 93.8 118 64 C 118 34.2 93.8 10 64 10 Z " fill="rgb(91,91,91)"/><path d=" M 56.4 76.3 C 56.4 74.5 55.8 73 54.7 71.8 C 53.6 70.6 51.7 69.5 49.1 68.6 C 46.5 67.6 44.4 66.7 43 65.9 C 38.2 63.2 35.7 59.2 35.7 54 C 35.7 50.4 36.7 47.5 38.8 45.2 C 40.9 42.9 43.1 41.6 46.7 41.2 L 46.7 34 L 52.3 34 L 52.3 41.1 C 55.9 41.6 58.7 43.2 60.7 45.9 C 62.7 48.5 63.7 51.9 63.7 56.1 L 56.2 56.1 C 56.2 53.4 55.6 51.3 54.4 49.7 C 53.2 48.1 51.6 47.3 49.6 47.3 C 47.6 47.3 46 47.9 44.9 49 C 43.8 50.1 43.2 51.7 43.2 53.8 C 43.2 55.7 43.8 57.2 44.9 58.3 C 46 59.4 47.9 60.5 50.6 61.5 C 53.3 62.5 55.4 63.4 56.9 64.3 C 58.4 65.2 59.7 66.1 60.7 67.3 C 61.7 68.4 62.5 69.7 63.1 71.1 C 63.7 72.5 63.9 74.2 63.9 76.2 C 63.9 79.8 62.8 82.8 60.7 85 C 58.6 87.3 56 88.6 52.1 89 L 52.1 94 L 46.7 94 L 46.7 89 C 42.6 88.5 39.4 87 37.2 84.4 C 35 81.8 33.9 78.4 33.9 74.2 L 41.5 74.2 C 41.5 76.9 42.2 79 43.5 80.5 C 44.8 82 46.7 82.7 49.1 82.7 C 51.5 82.7 53.3 82.1 54.5 80.9 C 55.8 79.8 56.4 78.2 56.4 76.3 Z " fill="rgb(91,91,91)"/><rect x="94" y="49" width="5" height="35" transform="matrix(1,0,0,1,0,0)" fill="rgb(91,91,91)"/><rect x="84" y="54" width="5" height="25" transform="matrix(1,0,0,1,0,0)" fill="rgb(91,91,91)"/><rect x="74" y="59" width="5" height="15" transform="matrix(1,0,0,1,0,0)" fill="rgb(91,91,91)"/></g></svg>