<?xml version="1.0" encoding="UTF-8" standalone="no"?>
<!DOCTYPE svg PUBLIC "-//W3C//DTD SVG 1.1//EN" "http://www.w3.org/Graphics/SVG/1.1/DTD/svg11.dtd">
<svg width="100%" height="100%" viewBox="0 0 442 124" version="1.1" xmlns="http://www.w3.org/2000/svg" xmlns:xlink="http://www.w3.org/1999/xlink" xml:space="preserve" xmlns:serif="http://www.serif.com/" style="fill-rule:evenodd;clip-rule:evenodd;stroke-linecap:round;stroke-linejoin:round;">
    <circle cx="39" cy="62" r="39" style="fill:rgb(37,38,42);"/>
    <circle cx="222" cy="62" r="62" style="fill:rgb(37,38,42);"/>
    <circle cx="403" cy="62" r="39" style="fill:rgb(45,46,50);"/>
    <path d="M181,37C181,33.686 183.686,31 187,31L254.579,31C257.893,31 260.579,33.686 260.579,37L260.579,88C260.579,91.314 257.893,94 254.579,94L187,94C183.686,94 181,91.314 181,88L181,37ZM192.605,38.461C192.605,39.834 191.492,40.948 190.118,40.948C188.745,40.948 187.632,39.834 187.632,38.461C187.632,37.087 188.745,35.974 190.118,35.974C191.492,35.974 192.605,37.087 192.605,38.461ZM198.408,40.948C199.781,40.948 200.895,39.834 200.895,38.461C200.895,37.087 199.781,35.974 198.408,35.974C197.034,35.974 195.921,37.087 195.921,38.461C195.921,39.834 197.034,40.948 198.408,40.948ZM209.184,38.461C209.184,39.834 208.071,40.948 206.697,40.948C205.324,40.948 204.211,39.834 204.211,38.461C204.211,37.087 205.324,35.974 206.697,35.974C208.071,35.974 209.184,37.087 209.184,38.461ZM189.974,45.921C187.765,45.921 185.974,47.712 185.974,49.921L185.974,85.026C185.974,87.235 187.765,89.026 189.974,89.026L251.605,89.026C253.814,89.026 255.605,87.235 255.605,85.026L255.605,49.921C255.605,47.712 253.814,45.921 251.605,45.921L189.974,45.921Z" style="fill:white;"/>
    <path d="M187,28C182.029,28 178,32.029 178,37L184,37C184,35.343 185.343,34 187,34L187,28ZM254.579,28L187,28L187,34L254.579,34L254.579,28ZM263.579,37C263.579,32.029 259.55,28 254.579,28L254.579,34C256.236,34 257.579,35.343 257.579,37L263.579,37ZM263.579,88L263.579,37L257.579,37L257.579,88L263.579,88ZM254.579,97C259.55,97 263.579,92.971 263.579,88L257.579,88C257.579,89.657 256.236,91 254.579,91L254.579,97ZM187,97L254.579,97L254.579,91L187,91L187,97ZM178,88C178,92.971 182.029,97 187,97L187,91C185.343,91 184,89.657 184,88L178,88ZM178,37L178,88L184,88L184,37L178,37ZM190.118,43.948C193.149,43.948 195.605,41.491 195.605,38.461L189.605,38.461C189.605,38.177 189.835,37.948 190.118,37.948L190.118,43.948ZM184.632,38.461C184.632,41.491 187.088,43.948 190.118,43.948L190.118,37.948C190.402,37.948 190.632,38.177 190.632,38.461L184.632,38.461ZM190.118,32.974C187.088,32.974 184.632,35.43 184.632,38.461L190.632,38.461C190.632,38.744 190.402,38.974 190.118,38.974L190.118,32.974ZM195.605,38.461C195.605,35.43 193.149,32.974 190.118,32.974L190.118,38.974C189.835,38.974 189.605,38.744 189.605,38.461L195.605,38.461ZM197.895,38.461C197.895,38.177 198.124,37.948 198.408,37.948L198.408,43.948C201.438,43.948 203.895,41.491 203.895,38.461L197.895,38.461ZM198.408,38.974C198.124,38.974 197.895,38.744 197.895,38.461L203.895,38.461C203.895,35.43 201.438,32.974 198.408,32.974L198.408,38.974ZM198.921,38.461C198.921,38.744 198.691,38.974 198.408,38.974L198.408,32.974C195.378,32.974 192.921,35.43 192.921,38.461L198.921,38.461ZM198.408,37.948C198.691,37.948 198.921,38.177 198.921,38.461L192.921,38.461C192.921,41.491 195.378,43.948 198.408,43.948L198.408,37.948ZM206.697,43.948C209.728,43.948 212.184,41.491 212.184,38.461L206.184,38.461C206.184,38.177 206.414,37.948 206.697,37.948L206.697,43.948ZM201.211,38.461C201.211,41.491 203.667,43.948 206.697,43.948L206.697,37.948C206.981,37.948 207.211,38.177 207.211,38.461L201.211,38.461ZM206.697,32.974C203.667,32.974 201.211,35.43 201.211,38.461L207.211,38.461C207.211,38.744 206.981,38.974 206.697,38.974L206.697,32.974ZM212.184,38.461C212.184,35.43 209.728,32.974 206.697,32.974L206.697,38.974C206.414,38.974 206.184,38.744 206.184,38.461L212.184,38.461ZM188.974,49.921C188.974,49.369 189.421,48.921 189.974,48.921L189.974,42.921C186.108,42.921 182.974,46.055 182.974,49.921L188.974,49.921ZM188.974,85.026L188.974,49.921L182.974,49.921L182.974,85.026L188.974,85.026ZM189.974,86.026C189.421,86.026 188.974,85.579 188.974,85.026L182.974,85.026C182.974,88.892 186.108,92.026 189.974,92.026L189.974,86.026ZM251.605,86.026L189.974,86.026L189.974,92.026L251.605,92.026L251.605,86.026ZM252.605,85.026C252.605,85.579 252.158,86.026 251.605,86.026L251.605,92.026C255.471,92.026 258.605,88.892 258.605,85.026L252.605,85.026ZM252.605,49.921L252.605,85.026L258.605,85.026L258.605,49.921L252.605,49.921ZM251.605,48.921C252.158,48.921 252.605,49.369 252.605,49.921L258.605,49.921C258.605,46.055 255.471,42.921 251.605,42.921L251.605,48.921ZM189.974,48.921L251.605,48.921L251.605,42.921L189.974,42.921L189.974,48.921Z" style="fill:white;fill-rule:nonzero;"/>
    <path d="M216.969,72.786C216.969,71.974 216.72,71.305 216.22,70.78C215.721,70.245 214.889,69.767 213.725,69.347C212.56,68.917 211.654,68.521 211.007,68.158C208.853,66.964 207.776,65.196 207.776,62.856C207.776,61.27 208.243,59.966 209.177,58.944C210.11,57.922 211.1,57.344 212.699,57.153L212.699,54L215.194,54L215.194,57.153C216.803,57.391 218.046,58.098 218.924,59.273C219.802,60.439 220.241,61.958 220.241,63.83L216.886,63.83C216.886,62.626 216.623,61.681 216.096,60.993C215.578,60.295 214.871,59.947 213.974,59.947C213.087,59.947 212.394,60.195 211.894,60.692C211.395,61.189 211.146,61.9 211.146,62.827C211.146,63.658 211.391,64.327 211.881,64.833C212.38,65.33 213.221,65.803 214.404,66.252C215.587,66.701 216.516,67.116 217.191,67.499C217.866,67.881 218.434,68.32 218.897,68.817C219.359,69.304 219.715,69.868 219.964,70.508C220.214,71.148 220.339,71.898 220.339,72.757C220.339,74.372 219.858,75.681 218.897,76.684C217.944,77.687 216.789,78.294 215.079,78.475L215.079,80.677L212.699,80.677L212.699,78.475C210.868,78.265 209.459,77.587 208.47,76.44C207.49,75.294 207,73.775 207,71.883L210.369,71.883C210.369,73.087 210.66,74.019 211.243,74.678C211.834,75.337 212.666,75.666 213.739,75.666C214.792,75.666 215.592,75.404 216.137,74.878C216.692,74.353 216.969,73.656 216.969,72.786Z" style="fill:rgb(101,243,169);fill-rule:nonzero;"/>
    <rect x="223.885" y="65.116" width="2.223" height="6.669" style="fill:rgb(101,243,169);"/>
    <rect x="228.331" y="62.892" width="2.223" height="11.115" style="fill:rgb(101,243,169);"/>
    <rect x="232.777" y="60.67" width="2.223" height="15.562" style="fill:rgb(101,243,169);"/>
    <path d="M46.786,52.286C46.786,54.483 45.913,56.591 44.359,58.145C42.805,59.699 40.698,60.571 38.5,60.571C36.303,60.571 34.195,59.699 32.641,58.145C31.087,56.591 30.214,54.483 30.214,52.286C30.214,50.088 31.087,47.981 32.641,46.427C34.195,44.873 36.303,44 38.5,44C40.698,44 42.805,44.873 44.359,46.427C45.913,47.981 46.786,50.088 46.786,52.286Z" style="fill:none;fill-rule:nonzero;stroke:white;stroke-width:2px;"/>
    <path d="M38.5,66.786C34.654,66.786 30.966,68.313 28.247,71.033C25.528,73.752 24,77.44 24,81.286L53,81.286C53,77.44 51.472,73.752 48.753,71.033C46.034,68.313 42.346,66.786 38.5,66.786Z" style="fill:none;fill-rule:nonzero;stroke:white;stroke-width:2px;"/>
    <path d="M86,62L150,62" style="fill:none;fill-rule:nonzero;stroke:rgb(149,150,155);stroke-width:2px;stroke-linecap:butt;stroke-linejoin:miter;"/>
    <path d="M292,62L356,62" style="fill:none;fill-rule:nonzero;stroke:rgb(149,150,155);stroke-width:2px;stroke-linecap:butt;stroke-linejoin:miter;"/>
    <path d="M384,45.875C384,45.112 384.25,44.381 384.696,43.842C385.141,43.303 385.745,43 386.375,43L419.625,43C420.255,43 420.859,43.303 421.304,43.842C421.75,44.381 422,45.112 422,45.875L422,51.625C422,52.388 421.75,53.119 421.304,53.658C420.859,54.197 420.255,54.5 419.625,54.5L386.375,54.5C385.745,54.5 385.141,54.197 384.696,53.658C384.25,53.119 384,52.388 384,51.625L384,45.875Z" style="fill:none;fill-rule:nonzero;stroke:white;stroke-width:2px;"/>
    <path d="M384,62.625C384,61.929 384.277,61.261 384.769,60.769C385.261,60.277 385.929,60 386.625,60L402.375,60C403.071,60 403.739,60.277 404.231,60.769C404.723,61.261 405,61.929 405,62.625L405,78.375C405,79.071 404.723,79.739 404.231,80.231C403.739,80.723 403.071,81 402.375,81L386.625,81C385.929,81 385.261,80.723 384.769,80.231C384.277,79.739 384,79.071 384,78.375L384,62.625Z" style="fill:none;fill-rule:nonzero;stroke:white;stroke-width:2px;"/>
    <path d="M410.5,62.625C410.5,61.929 410.803,61.261 411.342,60.769C411.881,60.277 412.613,60 413.375,60L419.125,60C419.887,60 420.619,60.277 421.158,60.769C421.697,61.261 422,61.929 422,62.625L422,78.375C422,79.071 421.697,79.739 421.158,80.231C420.619,80.723 419.887,81 419.125,81L413.375,81C412.613,81 411.881,80.723 411.342,80.231C410.803,79.739 410.5,79.071 410.5,78.375L410.5,62.625Z" style="fill:none;fill-rule:nonzero;stroke:white;stroke-width:2px;"/>
</svg>
